<svg width="20" height="20" viewBox="0 0 20 20" fill="none" xmlns="http://www.w3.org/2000/svg">
<mask id="mask0_7_7337" style="mask-type:alpha" maskUnits="userSpaceOnUse" x="0" y="0" width="20" height="20">
<rect width="20" height="20" fill="white"/>
</mask>
<g mask="url(#mask0_7_7337)">
<path fill-rule="evenodd" clip-rule="evenodd" d="M2.50033 16.6667H15.0003C15.3337 16.6667 15.6353 16.4683 15.7662 16.1617L18.2662 10.3283C18.377 10.0708 18.3503 9.77583 18.1962 9.54167C18.0412 9.3075 17.7803 9.16667 17.5003 9.16667H16.667V5.83333C16.667 4.91417 15.9195 4.16667 15.0003 4.16667H10.7503L8.84699 2.6775C8.70033 2.5625 8.52033 2.5 8.33366 2.5H3.33366C2.41449 2.5 1.66699 3.2475 1.66699 4.16667V15.8333H1.67283C1.67283 15.9933 1.71366 16.1542 1.80449 16.2925C1.95949 16.5258 2.22033 16.6667 2.50033 16.6667ZM3.76449 15L5.55033 10.8333H16.237L14.4512 15H3.76449ZM15.0003 9.16667H5.00033C4.66699 9.16667 4.36533 9.365 4.23449 9.67167L3.33366 11.7742V5.83333H15.0003V9.16667Z" fill="#2E3A59" fill-opacity="0.8"/>
</g>
</svg>
