<svg width="14" height="18" viewBox="0 0 14 18" fill="none" xmlns="http://www.w3.org/2000/svg">
<path fill-rule="evenodd" clip-rule="evenodd" d="M7.8327 0.666656C7.30963 1.36304 6.99967 2.22865 6.99967 3.16666C6.99967 3.37915 7.01558 3.58794 7.04627 3.79188L6.99967 3.79166C4.49967 3.79166 3.66634 5.68332 3.66634 7.74999V13.1667H10.333V7.74999C10.333 7.58065 10.3274 7.41248 10.3158 7.24644C10.5904 7.30339 10.8749 7.33332 11.1663 7.33332C11.4474 7.33332 11.7219 7.3055 11.9874 7.25245C11.9956 7.41629 11.9997 7.58224 11.9997 7.74999V12.3333L13.6663 13.1667V14.8333H0.333008V13.1667L1.99967 12.3333V7.74999C1.99967 5.18332 2.94967 3.04999 5.33301 2.48332V0.666656H7.8327ZM8.75479 2.50517C9.0448 1.44546 10.0146 0.666656 11.1663 0.666656C12.5471 0.666656 13.6663 1.78594 13.6663 3.16666C13.6663 4.3519 12.8415 5.34449 11.7346 5.60179C11.552 5.64422 11.3618 5.66666 11.1663 5.66666C10.6429 5.66666 10.1571 5.50582 9.75559 5.23087C9.42653 5.00555 9.15409 4.70359 8.96397 4.35072C8.77409 3.99828 8.66634 3.59505 8.66634 3.16666C8.66634 2.93766 8.69713 2.71586 8.75479 2.50517ZM8.66634 15.6667H5.33301C5.33301 16.5833 6.08301 17.3333 6.99967 17.3333C7.91634 17.3333 8.66634 16.5833 8.66634 15.6667Z" fill="white"/>
</svg>
