<svg width="20" height="20" viewBox="0 0 20 20" fill="none" xmlns="http://www.w3.org/2000/svg">
<mask id="mask0_7_7131" style="mask-type:alpha" maskUnits="userSpaceOnUse" x="0" y="0" width="20" height="20">
<rect width="20" height="20" fill="white"/>
</mask>
<g mask="url(#mask0_7_7131)">
<path fill-rule="evenodd" clip-rule="evenodd" d="M10 13.3333C8.15909 13.3333 6.66671 11.8409 6.66671 9.99999C6.66671 8.15904 8.15909 6.66666 10 6.66666C11.841 6.66666 13.3334 8.15904 13.3334 9.99999C13.3334 11.8409 11.841 13.3333 10 13.3333ZM10 11.6667C9.07957 11.6667 8.33337 10.9205 8.33337 9.99999C8.33337 9.07951 9.07957 8.33332 10 8.33332C10.9205 8.33332 11.6667 9.07951 11.6667 9.99999C11.6667 10.9205 10.9205 11.6667 10 11.6667ZM3.54152 4.51978C3.73732 4.18064 4.14286 4.02358 4.51602 4.14239L6.04683 4.62979C6.2511 4.47958 6.46304 4.34179 6.68142 4.21675C6.88946 4.09711 7.10456 3.98838 7.32595 3.89132L7.66926 2.32191C7.75295 1.93934 8.09173 1.66666 8.48335 1.66666H11.5169C11.9085 1.66666 12.2472 1.93934 12.3309 2.32191L12.6742 3.89132C12.9092 3.9943 13.137 4.11044 13.3568 4.2388C13.5617 4.35794 13.7609 4.48836 13.9532 4.62979L15.484 4.1424C15.8572 4.02359 16.2627 4.18064 16.4585 4.51979L17.9753 7.14688C18.1711 7.48603 18.1043 7.91576 17.8148 8.17952L16.6274 9.26155C16.6546 9.50735 16.668 9.75357 16.6678 9.99906C16.6681 10.2452 16.6547 10.492 16.6274 10.7385L17.8148 11.8205C18.1043 12.0842 18.1711 12.514 17.9753 12.8531L16.4585 15.4802C16.2627 15.8194 15.8572 15.9764 15.484 15.8576L13.9532 15.3702C13.7585 15.5134 13.5569 15.6452 13.3493 15.7656C13.1318 15.8922 12.9065 16.0068 12.6742 16.1087L12.3309 17.6781C12.2472 18.0606 11.9085 18.3333 11.5169 18.3333H8.48335C8.09173 18.3333 7.75295 18.0606 7.66926 17.6781L7.32595 16.1087C7.10714 16.0127 6.89447 15.9054 6.68869 15.7874C6.46774 15.6613 6.25336 15.5221 6.04683 15.3702L4.51602 15.8576C4.14286 15.9764 3.73732 15.8194 3.54151 15.4802L2.02476 12.8531C1.82895 12.514 1.89571 12.0842 2.18519 11.8205L3.37268 10.7385C3.34539 10.4923 3.33201 10.2458 3.33224 9.99998C3.33201 9.75418 3.34539 9.50765 3.37268 9.26154L2.18519 8.17952C1.89572 7.91576 1.82895 7.48603 2.02476 7.14688L3.54152 4.51978ZM11.2275 5.07688L12.0051 5.41775C12.1809 5.49484 12.3516 5.58183 12.5164 5.67807L12.5191 5.67963C12.6727 5.76895 12.8219 5.86665 12.9659 5.97252L13.6499 6.47547L15.3505 5.934L16.1965 7.39933L14.8773 8.60141L14.9708 9.44524C14.9912 9.62924 15.0013 9.81369 15.0011 9.99774C15.0013 10.1854 14.9913 10.3703 14.9708 10.5547L14.8773 11.3986L16.1965 12.6007L15.3505 14.066L13.6499 13.5245L12.9659 14.0275C12.8201 14.1346 12.6691 14.2334 12.5135 14.3236C12.3477 14.4201 12.1789 14.506 12.0051 14.5822L11.2275 14.9231L10.8461 16.6667H9.15409L8.77269 14.9231L7.99513 14.5822C7.83133 14.5104 7.67202 14.43 7.51775 14.3416L7.51503 14.34C7.34936 14.2454 7.18877 14.1412 7.03418 14.0275L6.35019 13.5245L4.64952 14.066L3.80351 12.6007L5.12277 11.3986L5.0292 10.5548C5.00877 10.3705 4.99874 10.1858 4.99891 10.0015C4.99874 9.81414 5.00877 9.62946 5.0292 9.44524L5.12278 8.60141L3.80351 7.39933L4.64952 5.934L6.35018 6.47547L7.03418 5.97252C7.18708 5.86008 7.34585 5.75686 7.50958 5.6631L7.5123 5.66154C7.66827 5.57185 7.8294 5.4904 7.99512 5.41775L8.77269 5.07688L9.15409 3.33332H10.8461L11.2275 5.07688Z" fill="white"/>
</g>
</svg>
