<svg width="20" height="20" viewBox="0 0 20 20" fill="none" xmlns="http://www.w3.org/2000/svg">
<mask id="mask0_7_7139" style="mask-type:alpha" maskUnits="userSpaceOnUse" x="0" y="0" width="20" height="20">
<rect width="20" height="20" fill="white"/>
</mask>
<g mask="url(#mask0_7_7139)">
<path fill-rule="evenodd" clip-rule="evenodd" d="M7.50033 9.99999C7.50033 11.3683 8.63199 12.5 10.0003 12.5C11.3678 12.5 12.5003 11.3683 12.5003 9.99999C12.5003 8.63249 11.3678 7.49999 10.0003 7.49999C8.63199 7.49999 7.50033 8.63249 7.50033 9.99999ZM1.75485 9.73666L1.66699 9.99999L1.75402 10.2633C1.77226 10.3192 3.67366 15.8333 10.0003 15.8333C16.327 15.8333 18.2284 10.3192 18.2458 10.2633L18.3337 9.99999L18.2466 9.73666C18.2284 9.68082 16.327 4.16666 10.0003 4.16666C3.67366 4.16666 1.77226 9.68082 1.75485 9.73666ZM3.4308 9.99999C3.84854 9.03499 5.5676 5.83332 10.0003 5.83332C14.4355 5.83332 16.1538 9.03832 16.5698 9.99999C16.1521 10.965 14.4331 14.1667 10.0003 14.1667C5.56511 14.1667 3.84689 10.9617 3.4308 9.99999Z" fill="white"/>
</g>
</svg>
