<svg width="20" height="20" viewBox="0 0 20 20" fill="none" xmlns="http://www.w3.org/2000/svg">
<mask id="mask0_7_7359" style="mask-type:alpha" maskUnits="userSpaceOnUse" x="0" y="0" width="20" height="20">
<rect width="20" height="20" fill="white"/>
</mask>
<g mask="url(#mask0_7_7359)">
<path fill-rule="evenodd" clip-rule="evenodd" d="M10.0003 11.6667C11.8413 11.6667 13.3337 10.1743 13.3337 8.33333C13.3337 6.49238 11.8413 5 10.0003 5C8.15938 5 6.66699 6.49238 6.66699 8.33333C6.66699 10.1743 8.15938 11.6667 10.0003 11.6667C10.0003 11.6667 11.8413 11.6667 10.0003 11.6667ZM10.0003 10C10.9208 10 11.667 9.25381 11.667 8.33333C11.667 7.41286 10.9208 6.66667 10.0003 6.66667C9.07985 6.66667 8.33366 7.41286 8.33366 8.33333C8.33366 9.25381 9.07985 10 10.0003 10C10.0003 10 10.9208 10 10.0003 10ZM14.9388 16.7131C16.9978 15.1958 18.3337 12.7539 18.3337 10C18.3337 5.39763 14.6027 1.66667 10.0003 1.66667C5.39795 1.66667 1.66699 5.39763 1.66699 10C1.66699 12.7539 3.00284 15.1958 5.06189 16.7131C5.09977 16.741 5.1379 16.7686 5.17626 16.7959C5.5503 17.0619 5.94724 17.2978 6.36355 17.5C7.46252 18.0339 8.69645 18.3333 10.0003 18.3333C11.3042 18.3333 12.5381 18.0339 13.6371 17.5C13.6594 17.4892 13.6817 17.4782 13.7039 17.4672C14.1384 17.2512 14.5514 16.9985 14.9388 16.7131C14.9388 16.7131 16.9978 15.1958 14.9388 16.7131ZM14.3576 15.0458C15.772 13.8233 16.667 12.0162 16.667 10C16.667 6.3181 13.6822 3.33333 10.0003 3.33333C6.31843 3.33333 3.33366 6.3181 3.33366 10C3.33366 12.0162 4.22867 13.8233 5.64306 15.0458C6.50088 13.5261 8.13077 12.5 10.0003 12.5C11.8699 12.5 13.4998 13.5261 14.3576 15.0458C14.3576 15.0458 15.772 13.8233 14.3576 15.0458ZM12.9642 15.9732C12.4104 14.9003 11.291 14.1667 10.0003 14.1667C8.70962 14.1667 7.59026 14.9003 7.03642 15.9732C7.92922 16.4171 8.93563 16.6667 10.0003 16.6667C11.065 16.6667 12.0714 16.4171 12.9642 15.9732C12.9642 15.9732 12.4104 14.9003 12.9642 15.9732Z" fill="#2E3A59" fill-opacity="0.8"/>
</g>
</svg>
